<svg width="48" height="48" viewBox="0 0 48 48" fill="none" xmlns="http://www.w3.org/2000/svg">
<rect width="48" height="48" fill="#1B1B1B"/>
<path d="M12.6392 37L16.9858 10.8182H22.4318L20.821 20.6619H20.9744C21.2983 20.1335 21.733 19.5966 22.2784 19.0511C22.8324 18.4972 23.5099 18.0369 24.3111 17.6705C25.1122 17.2955 26.0625 17.108 27.1619 17.108C28.5938 17.108 29.8509 17.483 30.9332 18.233C32.0156 18.9744 32.7955 20.0952 33.2727 21.5952C33.75 23.0866 33.8011 24.9574 33.4261 27.2074C33.0682 29.3977 32.4077 31.2472 31.4446 32.7557C30.4901 34.2557 29.3438 35.3935 28.0057 36.169C26.6761 36.9361 25.2656 37.3196 23.7741 37.3196C22.7173 37.3196 21.848 37.1449 21.1662 36.7955C20.4929 36.446 19.9688 36.0071 19.5938 35.4787C19.2188 34.9418 18.9503 34.4006 18.7884 33.8551H18.5199L18.0085 37H12.6392ZM19.6065 27.1818C19.419 28.3494 19.4148 29.3679 19.5938 30.2372C19.7812 31.1065 20.1392 31.7841 20.6676 32.2699C21.2045 32.7472 21.9077 32.9858 22.777 32.9858C23.6719 32.9858 24.4645 32.7429 25.1548 32.2571C25.8537 31.7628 26.4332 31.081 26.8935 30.2116C27.3537 29.3338 27.6776 28.3239 27.8651 27.1818C28.044 26.0483 28.0483 25.0511 27.8778 24.1903C27.7074 23.3295 27.358 22.6562 26.8295 22.1705C26.3011 21.6847 25.5852 21.4418 24.6818 21.4418C23.804 21.4418 23.0156 21.6761 22.3168 22.1449C21.6264 22.6136 21.0469 23.2784 20.5781 24.1392C20.1179 25 19.794 26.0142 19.6065 27.1818Z" fill="white"/>
</svg>
